<svg id="eAnVv57q0Tz1" xmlns="http://www.w3.org/2000/svg" xmlns:xlink="http://www.w3.org/1999/xlink"
    viewBox="0 0 900 900" shape-rendering="geometricPrecision" text-rendering="geometricPrecision">
    <path
        d="M83.24371,307.93021c0-127.72437,62.39584-171.21177,178.06052-192.89889c46.1679-8.65648,97.30445-8.09008,142.81937,5.56439c21.28313,6.38494,38.86836,19.94305,59.3535,27.82196c32.81352,12.62059,71.57002,22.93833,96.44945,50.07952c10.43089,11.37915,13.19815,24.48786,20.40277,37.09594c22.73385,39.78424,78.95315,132.26614,111.28782,161.36734c61.86662,55.67995,170.64133,75.9203,170.64133,174.35092c0,31.24833-7.33594,64.7618-22.25756,92.73985-9.21642,17.28079-24.2626,42.76049-40.80553,53.78911-44.28891,29.52594-219.40554,40.00744-267.09077,24.11236-30.05833-10.01945-63.1084-29.36422-90.88506-44.51513-45.46616-24.79972-76.58771-68.1222-126.1262-87.17546-87.25956-33.56137-181.86027-41.89822-231.84963-133.54539-31.8283-58.35189-1.14879-183.44534,11.12878-244.83321"
        transform="translate(0 0.000001)" fill="#bd2ac3" stroke-width="1.8" />
</svg>