<svg id="egdPQLjuY9w1" xmlns="http://www.w3.org/2000/svg" xmlns:xlink="http://www.w3.org/1999/xlink" viewBox="0 0 1600 1600" shape-rendering="geometricPrecision" text-rendering="geometricPrecision"><path d="M57.37588,1233.48746c0-115.40679,48.56294-271.49176,150.41197-339.39111c44.2538-29.50253,104.0427-41.43754,154.26869-53.99404C463.67552,814.69756,629.91853,733.87385,689.8775,647.26645c43.58857-62.96127,77.78239-133.72059,96.41793-208.26273c19.2346-76.9384,86.759784-181.26315,168.746514-226.81134c124.65852-69.25473,371.320486-93.04297,444.471506,53.25907c34.11809,68.23618,71.13672,140.99043,92.56121,215.97616c64.50626,225.77191,17.38968,624.26303-131.12838,809.9106-60.37638,75.47047-228.5879,150.62029-323.96424,169.69555-154.23718,30.84743-260.03698,44.00543-416.52545,23.1403-31.22947-4.16393-66.09868-.74185-96.41793-11.57015-61.42496-21.93748-124.995922-20.378066-187.657862-38.281476-105.85311-30.24374-255.810248-73.791424-281.218958-200.834974" fill="#7cfe6e" stroke-width="2.4"/></svg>
